<?xml version="1.0" standalone="no"?>
<svg xmlns:xlink="http://www.w3.org/1999/xlink" id="wave" style="transform:rotate(180deg); transition: 0.3s" viewBox="0 0 1440 410" version="1.1" xmlns="http://www.w3.org/2000/svg"><defs><linearGradient id="sw-gradient-0" x1="0" x2="0" y1="1" y2="0"><stop stop-color="rgba(0, 0, 0, 1)" offset="0%"/><stop stop-color="rgba(41.413, 41.413, 111.883, 1)" offset="100%"/></linearGradient></defs><path style="transform:translate(0, 0px); opacity:1" fill="url(#sw-gradient-0)" d="M0,369L60,328C120,287,240,205,360,143.5C480,82,600,41,720,47.8C840,55,960,109,1080,164C1200,219,1320,273,1440,280.2C1560,287,1680,246,1800,246C1920,246,2040,287,2160,307.5C2280,328,2400,328,2520,307.5C2640,287,2760,246,2880,246C3000,246,3120,287,3240,266.5C3360,246,3480,164,3600,143.5C3720,123,3840,164,3960,184.5C4080,205,4200,205,4320,184.5C4440,164,4560,123,4680,150.3C4800,178,4920,273,5040,307.5C5160,342,5280,314,5400,273.3C5520,232,5640,178,5760,177.7C5880,178,6000,232,6120,218.7C6240,205,6360,123,6480,123C6600,123,6720,205,6840,198.2C6960,191,7080,96,7200,95.7C7320,96,7440,191,7560,252.8C7680,314,7800,342,7920,328C8040,314,8160,260,8280,252.8C8400,246,8520,287,8580,307.5L8640,328L8640,410L8580,410C8520,410,8400,410,8280,410C8160,410,8040,410,7920,410C7800,410,7680,410,7560,410C7440,410,7320,410,7200,410C7080,410,6960,410,6840,410C6720,410,6600,410,6480,410C6360,410,6240,410,6120,410C6000,410,5880,410,5760,410C5640,410,5520,410,5400,410C5280,410,5160,410,5040,410C4920,410,4800,410,4680,410C4560,410,4440,410,4320,410C4200,410,4080,410,3960,410C3840,410,3720,410,3600,410C3480,410,3360,410,3240,410C3120,410,3000,410,2880,410C2760,410,2640,410,2520,410C2400,410,2280,410,2160,410C2040,410,1920,410,1800,410C1680,410,1560,410,1440,410C1320,410,1200,410,1080,410C960,410,840,410,720,410C600,410,480,410,360,410C240,410,120,410,60,410L0,410Z"/></svg>